<svg xmlns="http://www.w3.org/2000/svg" xmlns:xlink="http://www.w3.org/1999/xlink" width="500" zoomAndPan="magnify" viewBox="0 0 375 374.999991" height="500" preserveAspectRatio="xMidYMid meet" version="1.0"><defs><g/><clipPath id="fd1c7ca4be"><path d="M 58.570312 71.554688 L 99.820312 71.554688 L 99.820312 111 L 58.570312 111 Z M 58.570312 71.554688 " clip-rule="nonzero"/></clipPath></defs><g clip-path="url(#fd1c7ca4be)"><path fill="#000000" d="M 72.417969 109.503906 C 75.777344 110.851562 79.269531 111.292969 82.820312 110.746094 C 88.492188 109.871094 93.0625 107.121094 96.300781 102.316406 C 97.726562 100.203125 98.691406 97.894531 99.117188 95.386719 C 99.820312 91.300781 99.070312 87.402344 97.300781 83.699219 C 95.160156 79.214844 91.617188 76.082031 87.320312 73.71875 C 87.027344 73.558594 86.699219 73.464844 86.378906 73.367188 C 86.308594 73.34375 86.175781 73.398438 86.136719 73.457031 C 86.09375 73.519531 86.085938 73.65625 86.128906 73.71875 C 86.609375 74.472656 87.316406 74.984375 88.058594 75.441406 C 88.800781 75.894531 89.5625 76.316406 90.21875 76.898438 C 93.074219 79.414062 94.882812 82.542969 95.667969 86.242188 C 96.460938 89.976562 96.070312 93.640625 94.742188 97.203125 C 91.867188 104.878906 84.128906 110.0625 75.839844 109.179688 C 71.972656 108.769531 68.648438 107.335938 65.992188 104.492188 C 61.703125 99.902344 60.097656 94.46875 61.269531 88.328125 C 62.234375 83.265625 64.953125 79.253906 69.285156 76.382812 C 72.15625 74.480469 75.285156 73.261719 78.765625 73.125 C 80.207031 73.070312 81.652344 73.117188 83.269531 73.117188 C 83.039062 72.847656 82.992188 72.734375 82.921875 72.714844 C 82.085938 72.476562 81.253906 72.214844 80.40625 72.027344 C 78.339844 71.570312 76.273438 71.664062 74.199219 72.027344 C 71.488281 72.5 68.976562 73.476562 66.765625 75.113281 C 61.847656 78.757812 59.152344 83.675781 58.832031 89.765625 C 58.570312 94.617188 60.015625 99.019531 63.085938 102.824219 C 65.570312 105.910156 68.753906 108.039062 72.417969 109.503906 Z M 72.417969 109.503906 " fill-opacity="1" fill-rule="nonzero"/></g><path fill="#000000" d="M 91.859375 96.015625 C 92.804688 93.664062 93.117188 91.222656 92.730469 88.738281 C 92.113281 84.765625 90.179688 81.570312 86.800781 79.304688 C 85.316406 78.308594 83.695312 77.636719 81.933594 77.332031 C 79.058594 76.839844 76.316406 77.367188 73.714844 78.605469 C 70.558594 80.105469 68.359375 82.582031 66.695312 85.585938 C 66.582031 85.792969 66.519531 86.023438 66.445312 86.246094 C 66.429688 86.292969 66.46875 86.386719 66.507812 86.414062 C 66.550781 86.445312 66.648438 86.449219 66.691406 86.417969 C 67.222656 86.082031 67.582031 85.585938 67.902344 85.066406 C 68.222656 84.546875 68.519531 84.015625 68.925781 83.558594 C 70.699219 81.5625 72.902344 80.292969 75.503906 79.746094 C 78.128906 79.195312 80.703125 79.464844 83.210938 80.398438 C 88.613281 82.40625 92.25 87.820312 91.632812 93.621094 C 91.34375 96.324219 90.335938 98.652344 88.335938 100.507812 C 85.109375 103.507812 81.289062 104.632812 76.96875 103.8125 C 73.410156 103.136719 70.585938 101.238281 68.570312 98.207031 C 67.234375 96.195312 66.375 94.007812 66.28125 91.574219 C 66.242188 90.566406 66.277344 89.558594 66.277344 88.425781 C 66.085938 88.585938 66.003906 88.617188 65.992188 88.667969 C 65.824219 89.253906 65.640625 89.835938 65.507812 90.425781 C 65.1875 91.871094 65.253906 93.320312 65.507812 94.765625 C 65.839844 96.664062 66.527344 98.417969 67.675781 99.964844 C 70.242188 103.40625 73.703125 105.289062 77.980469 105.519531 C 81.390625 105.699219 84.484375 104.691406 87.164062 102.539062 C 89.328125 100.800781 90.828125 98.574219 91.859375 96.015625 Z M 91.859375 96.015625 " fill-opacity="1" fill-rule="nonzero"/><g fill="#000000" fill-opacity="1"><g transform="translate(100.391724, 107.206923)"><g><path d="M 26.203125 -32.4375 L 26.203125 -26.109375 L 17.609375 -26.109375 L 17.609375 0 L 9.703125 0 L 9.703125 -26.109375 L 1.109375 -26.109375 L 1.109375 -32.4375 Z M 26.203125 -32.4375 "/></g></g></g><g fill="#000000" fill-opacity="1"><g transform="translate(125.065813, 107.206923)"><g><path d="M 10.765625 -21.484375 C 11.691406 -22.898438 12.847656 -24.015625 14.234375 -24.828125 C 15.617188 -25.648438 17.15625 -26.0625 18.84375 -26.0625 L 18.84375 -17.703125 L 16.671875 -17.703125 C 14.703125 -17.703125 13.222656 -17.273438 12.234375 -16.421875 C 11.253906 -15.578125 10.765625 -14.09375 10.765625 -11.96875 L 10.765625 0 L 2.859375 0 L 2.859375 -25.78125 L 10.765625 -25.78125 Z M 10.765625 -21.484375 "/></g></g></g><g fill="#000000" fill-opacity="1"><g transform="translate(142.208181, 107.206923)"><g><path d="M 6.84375 -28.46875 C 5.457031 -28.46875 4.320312 -28.875 3.4375 -29.6875 C 2.5625 -30.5 2.125 -31.507812 2.125 -32.71875 C 2.125 -33.945312 2.5625 -34.96875 3.4375 -35.78125 C 4.320312 -36.601562 5.457031 -37.015625 6.84375 -37.015625 C 8.195312 -37.015625 9.3125 -36.601562 10.1875 -35.78125 C 11.0625 -34.96875 11.5 -33.945312 11.5 -32.71875 C 11.5 -31.507812 11.0625 -30.5 10.1875 -29.6875 C 9.3125 -28.875 8.195312 -28.46875 6.84375 -28.46875 Z M 10.765625 -25.78125 L 10.765625 0 L 2.859375 0 L 2.859375 -25.78125 Z M 10.765625 -25.78125 "/></g></g></g><g fill="#000000" fill-opacity="1"><g transform="translate(153.205014, 107.206923)"><g><path d="M 1.296875 -12.9375 C 1.296875 -15.582031 1.796875 -17.90625 2.796875 -19.90625 C 3.796875 -21.914062 5.15625 -23.457031 6.875 -24.53125 C 8.601562 -25.613281 10.53125 -26.15625 12.65625 -26.15625 C 14.476562 -26.15625 16.070312 -25.785156 17.4375 -25.046875 C 18.8125 -24.304688 19.867188 -23.332031 20.609375 -22.125 L 20.609375 -25.78125 L 28.5 -25.78125 L 28.5 0 L 20.609375 0 L 20.609375 -3.65625 C 19.835938 -2.445312 18.765625 -1.472656 17.390625 -0.734375 C 16.023438 0.00390625 14.429688 0.375 12.609375 0.375 C 10.515625 0.375 8.601562 -0.171875 6.875 -1.265625 C 5.15625 -2.359375 3.796875 -3.914062 2.796875 -5.9375 C 1.796875 -7.957031 1.296875 -10.289062 1.296875 -12.9375 Z M 20.609375 -12.890625 C 20.609375 -14.859375 20.0625 -16.410156 18.96875 -17.546875 C 17.875 -18.691406 16.539062 -19.265625 14.96875 -19.265625 C 13.394531 -19.265625 12.0625 -18.703125 10.96875 -17.578125 C 9.875 -16.453125 9.328125 -14.90625 9.328125 -12.9375 C 9.328125 -10.96875 9.875 -9.40625 10.96875 -8.25 C 12.0625 -7.09375 13.394531 -6.515625 14.96875 -6.515625 C 16.539062 -6.515625 17.875 -7.082031 18.96875 -8.21875 C 20.0625 -9.363281 20.609375 -10.921875 20.609375 -12.890625 Z M 20.609375 -12.890625 "/></g></g></g><g fill="#000000" fill-opacity="1"><g transform="translate(181.945315, 107.206923)"><g><path d="M 10.765625 -34.1875 L 10.765625 0 L 2.859375 0 L 2.859375 -34.1875 Z M 10.765625 -34.1875 "/></g></g></g><g fill="#000000" fill-opacity="1"><g transform="translate(192.942148, 107.206923)"><g><path d="M 27.171875 -13.3125 C 27.171875 -12.570312 27.125 -11.800781 27.03125 -11 L 9.140625 -11 C 9.265625 -9.394531 9.78125 -8.164062 10.6875 -7.3125 C 11.601562 -6.46875 12.722656 -6.046875 14.046875 -6.046875 C 16.015625 -6.046875 17.382812 -6.878906 18.15625 -8.546875 L 26.5625 -8.546875 C 26.132812 -6.847656 25.359375 -5.320312 24.234375 -3.96875 C 23.109375 -2.613281 21.695312 -1.550781 20 -0.78125 C 18.3125 -0.0078125 16.421875 0.375 14.328125 0.375 C 11.796875 0.375 9.546875 -0.160156 7.578125 -1.234375 C 5.609375 -2.316406 4.066406 -3.859375 2.953125 -5.859375 C 1.847656 -7.867188 1.296875 -10.210938 1.296875 -12.890625 C 1.296875 -15.566406 1.84375 -17.90625 2.9375 -19.90625 C 4.03125 -21.914062 5.5625 -23.457031 7.53125 -24.53125 C 9.5 -25.613281 11.765625 -26.15625 14.328125 -26.15625 C 16.816406 -26.15625 19.03125 -25.628906 20.96875 -24.578125 C 22.914062 -23.535156 24.4375 -22.039062 25.53125 -20.09375 C 26.625 -18.15625 27.171875 -15.894531 27.171875 -13.3125 Z M 19.078125 -15.390625 C 19.078125 -16.742188 18.613281 -17.820312 17.6875 -18.625 C 16.769531 -19.425781 15.617188 -19.828125 14.234375 -19.828125 C 12.910156 -19.828125 11.789062 -19.441406 10.875 -18.671875 C 9.96875 -17.898438 9.40625 -16.804688 9.1875 -15.390625 Z M 19.078125 -15.390625 "/></g></g></g><g fill="#000000" fill-opacity="1"><g transform="translate(218.771416, 107.206923)"><g><path d="M 17.234375 -6.703125 L 17.234375 0 L 13.21875 0 C 10.351562 0 8.117188 -0.695312 6.515625 -2.09375 C 4.910156 -3.5 4.109375 -5.789062 4.109375 -8.96875 L 4.109375 -19.21875 L 0.96875 -19.21875 L 0.96875 -25.78125 L 4.109375 -25.78125 L 4.109375 -32.0625 L 12.015625 -32.0625 L 12.015625 -25.78125 L 17.1875 -25.78125 L 17.1875 -19.21875 L 12.015625 -19.21875 L 12.015625 -8.875 C 12.015625 -8.101562 12.195312 -7.546875 12.5625 -7.203125 C 12.9375 -6.867188 13.554688 -6.703125 14.421875 -6.703125 Z M 17.234375 -6.703125 "/></g></g></g><g fill="#000000" fill-opacity="1"><g transform="translate(234.897227, 107.206923)"><g><path d="M 6.84375 -28.46875 C 5.457031 -28.46875 4.320312 -28.875 3.4375 -29.6875 C 2.5625 -30.5 2.125 -31.507812 2.125 -32.71875 C 2.125 -33.945312 2.5625 -34.96875 3.4375 -35.78125 C 4.320312 -36.601562 5.457031 -37.015625 6.84375 -37.015625 C 8.195312 -37.015625 9.3125 -36.601562 10.1875 -35.78125 C 11.0625 -34.96875 11.5 -33.945312 11.5 -32.71875 C 11.5 -31.507812 11.0625 -30.5 10.1875 -29.6875 C 9.3125 -28.875 8.195312 -28.46875 6.84375 -28.46875 Z M 10.765625 -25.78125 L 10.765625 0 L 2.859375 0 L 2.859375 -25.78125 Z M 10.765625 -25.78125 "/></g></g></g><g fill="#000000" fill-opacity="1"><g transform="translate(245.89406, 107.206923)"><g><path d="M 1.296875 -12.890625 C 1.296875 -15.566406 1.84375 -17.90625 2.9375 -19.90625 C 4.03125 -21.914062 5.550781 -23.457031 7.5 -24.53125 C 9.457031 -25.613281 11.703125 -26.15625 14.234375 -26.15625 C 17.460938 -26.15625 20.160156 -25.304688 22.328125 -23.609375 C 24.503906 -21.910156 25.929688 -19.523438 26.609375 -16.453125 L 18.203125 -16.453125 C 17.492188 -18.421875 16.125 -19.40625 14.09375 -19.40625 C 12.644531 -19.40625 11.488281 -18.84375 10.625 -17.71875 C 9.757812 -16.59375 9.328125 -14.984375 9.328125 -12.890625 C 9.328125 -10.796875 9.757812 -9.1875 10.625 -8.0625 C 11.488281 -6.9375 12.644531 -6.375 14.09375 -6.375 C 16.125 -6.375 17.492188 -7.359375 18.203125 -9.328125 L 26.609375 -9.328125 C 25.929688 -6.316406 24.5 -3.945312 22.3125 -2.21875 C 20.125 -0.488281 17.429688 0.375 14.234375 0.375 C 11.703125 0.375 9.457031 -0.160156 7.5 -1.234375 C 5.550781 -2.316406 4.03125 -3.859375 2.9375 -5.859375 C 1.84375 -7.867188 1.296875 -10.210938 1.296875 -12.890625 Z M 1.296875 -12.890625 "/></g></g></g><g fill="#000000" fill-opacity="1"><g transform="translate(271.21505, 107.206923)"><g><path d="M 13.359375 0.375 C 11.109375 0.375 9.101562 -0.0078125 7.34375 -0.78125 C 5.59375 -1.550781 4.207031 -2.601562 3.1875 -3.9375 C 2.164062 -5.28125 1.597656 -6.785156 1.484375 -8.453125 L 9.28125 -8.453125 C 9.375 -7.554688 9.789062 -6.832031 10.53125 -6.28125 C 11.269531 -5.726562 12.179688 -5.453125 13.265625 -5.453125 C 14.242188 -5.453125 15.003906 -5.644531 15.546875 -6.03125 C 16.085938 -6.414062 16.359375 -6.914062 16.359375 -7.53125 C 16.359375 -8.269531 15.972656 -8.816406 15.203125 -9.171875 C 14.429688 -9.523438 13.179688 -9.914062 11.453125 -10.34375 C 9.609375 -10.78125 8.066406 -11.234375 6.828125 -11.703125 C 5.597656 -12.179688 4.535156 -12.9375 3.640625 -13.96875 C 2.753906 -15.007812 2.3125 -16.40625 2.3125 -18.15625 C 2.3125 -19.632812 2.71875 -20.984375 3.53125 -22.203125 C 4.351562 -23.421875 5.554688 -24.382812 7.140625 -25.09375 C 8.722656 -25.800781 10.609375 -26.15625 12.796875 -26.15625 C 16.035156 -26.15625 18.582031 -25.351562 20.4375 -23.75 C 22.300781 -22.144531 23.375 -20.019531 23.65625 -17.375 L 16.359375 -17.375 C 16.234375 -18.269531 15.835938 -18.976562 15.171875 -19.5 C 14.515625 -20.019531 13.644531 -20.28125 12.5625 -20.28125 C 11.644531 -20.28125 10.9375 -20.101562 10.4375 -19.75 C 9.945312 -19.394531 9.703125 -18.910156 9.703125 -18.296875 C 9.703125 -17.554688 10.09375 -17 10.875 -16.625 C 11.664062 -16.257812 12.890625 -15.894531 14.546875 -15.53125 C 16.460938 -15.03125 18.019531 -14.539062 19.21875 -14.0625 C 20.414062 -13.59375 21.46875 -12.828125 22.375 -11.765625 C 23.289062 -10.703125 23.765625 -9.273438 23.796875 -7.484375 C 23.796875 -5.972656 23.367188 -4.625 22.515625 -3.4375 C 21.671875 -2.25 20.457031 -1.316406 18.875 -0.640625 C 17.289062 0.0351562 15.453125 0.375 13.359375 0.375 Z M 13.359375 0.375 "/></g></g></g></svg>