<svg xmlns="http://www.w3.org/2000/svg" xmlns:xlink="http://www.w3.org/1999/xlink" width="40" zoomAndPan="magnify" viewBox="0 0 30 30.000001" height="40" preserveAspectRatio="xMidYMid meet" version="1.0"><defs><clipPath id="a56d4a4d97"><path d="M 2.398438 2.339844 L 27.800781 2.339844 L 27.800781 27 L 2.398438 27 Z M 2.398438 2.339844 " clip-rule="nonzero"/></clipPath></defs><g clip-path="url(#a56d4a4d97)"><path fill="#000000" d="M 10.925781 25.898438 C 12.996094 26.734375 15.144531 27.007812 17.332031 26.667969 C 20.824219 26.125 23.640625 24.417969 25.636719 21.433594 C 26.511719 20.125 27.105469 18.691406 27.367188 17.136719 C 27.800781 14.597656 27.339844 12.179688 26.25 9.878906 C 24.929688 7.09375 22.75 5.148438 20.101562 3.683594 C 19.921875 3.585938 19.71875 3.527344 19.523438 3.464844 C 19.480469 3.449219 19.398438 3.484375 19.375 3.523438 C 19.347656 3.558594 19.34375 3.644531 19.371094 3.683594 C 19.664062 4.152344 20.101562 4.46875 20.558594 4.753906 C 21.015625 5.035156 21.484375 5.296875 21.890625 5.65625 C 23.648438 7.21875 24.761719 9.160156 25.246094 11.457031 C 25.730469 13.777344 25.492188 16.050781 24.671875 18.261719 C 22.90625 23.027344 18.136719 26.242188 13.035156 25.695312 C 10.652344 25.441406 8.605469 24.554688 6.96875 22.785156 C 4.328125 19.9375 3.339844 16.566406 4.0625 12.753906 C 4.65625 9.609375 6.328125 7.121094 8.996094 5.339844 C 10.765625 4.15625 12.691406 3.398438 14.835938 3.316406 C 15.722656 3.28125 16.613281 3.3125 17.609375 3.3125 C 17.464844 3.140625 17.4375 3.074219 17.394531 3.058594 C 16.878906 2.910156 16.367188 2.75 15.84375 2.632812 C 14.574219 2.347656 13.300781 2.410156 12.023438 2.632812 C 10.355469 2.925781 8.804688 3.535156 7.445312 4.550781 C 4.417969 6.8125 2.757812 9.867188 2.558594 13.644531 C 2.398438 16.65625 3.289062 19.390625 5.179688 21.753906 C 6.710938 23.664062 8.671875 24.988281 10.925781 25.898438 Z M 10.925781 25.898438 " fill-opacity="1" fill-rule="nonzero"/></g><path fill="#000000" d="M 22.898438 17.523438 C 23.480469 16.066406 23.671875 14.550781 23.433594 13.007812 C 23.054688 10.542969 21.863281 8.558594 19.785156 7.152344 C 18.867188 6.53125 17.871094 6.117188 16.785156 5.925781 C 15.015625 5.621094 13.328125 5.949219 11.726562 6.714844 C 9.78125 7.648438 8.425781 9.1875 7.402344 11.050781 C 7.332031 11.179688 7.292969 11.320312 7.246094 11.460938 C 7.238281 11.492188 7.261719 11.546875 7.289062 11.566406 C 7.3125 11.585938 7.371094 11.585938 7.398438 11.566406 C 7.726562 11.359375 7.949219 11.050781 8.144531 10.730469 C 8.34375 10.40625 8.523438 10.078125 8.777344 9.789062 C 9.867188 8.550781 11.222656 7.765625 12.824219 7.425781 C 14.441406 7.082031 16.03125 7.25 17.570312 7.832031 C 20.898438 9.078125 23.140625 12.4375 22.757812 16.039062 C 22.582031 17.714844 21.960938 19.160156 20.730469 20.3125 C 18.742188 22.175781 16.386719 22.875 13.730469 22.367188 C 11.535156 21.945312 9.796875 20.765625 8.554688 18.886719 C 7.734375 17.636719 7.203125 16.28125 7.148438 14.769531 C 7.121094 14.144531 7.144531 13.515625 7.144531 12.8125 C 7.027344 12.914062 6.976562 12.933594 6.96875 12.964844 C 6.863281 13.328125 6.75 13.6875 6.671875 14.054688 C 6.472656 14.953125 6.515625 15.851562 6.671875 16.75 C 6.875 17.925781 7.296875 19.015625 8.007812 19.976562 C 9.585938 22.113281 11.714844 23.28125 14.351562 23.421875 C 16.453125 23.535156 18.359375 22.910156 20.007812 21.574219 C 21.339844 20.496094 22.261719 19.113281 22.898438 17.523438 Z M 22.898438 17.523438 " fill-opacity="1" fill-rule="nonzero"/></svg>