<svg xmlns="http://www.w3.org/2000/svg" xmlns:xlink="http://www.w3.org/1999/xlink" width="160" zoomAndPan="magnify" viewBox="0 0 120 30.000001" height="40" preserveAspectRatio="xMidYMid meet" version="1.0"><defs><g/><clipPath id="4ff61d3784"><path d="M 6.140625 2.714844 L 30.089844 2.714844 L 30.089844 25.941406 L 6.140625 25.941406 Z M 6.140625 2.714844 " clip-rule="nonzero"/></clipPath><clipPath id="7ce936d6d4"><rect x="0" width="87" y="0" height="29"/></clipPath></defs><g clip-path="url(#4ff61d3784)"><path fill="#ffffff" d="M 14.269531 25.0625 C 16.246094 25.851562 18.292969 26.113281 20.378906 25.792969 C 23.710938 25.277344 26.394531 23.65625 28.296875 20.828125 C 29.132812 19.585938 29.699219 18.222656 29.949219 16.75 C 30.363281 14.34375 29.921875 12.046875 28.882812 9.867188 C 27.625 7.226562 25.546875 5.382812 23.023438 3.992188 C 22.851562 3.898438 22.65625 3.84375 22.46875 3.785156 C 22.429688 3.769531 22.351562 3.804688 22.328125 3.835938 C 22.300781 3.875 22.296875 3.953125 22.324219 3.992188 C 22.605469 4.4375 23.019531 4.734375 23.457031 5.003906 C 23.890625 5.273438 24.339844 5.519531 24.726562 5.863281 C 26.402344 7.34375 27.464844 9.1875 27.925781 11.367188 C 28.390625 13.5625 28.160156 15.71875 27.378906 17.816406 C 25.695312 22.339844 21.148438 25.386719 16.28125 24.871094 C 14.011719 24.628906 12.058594 23.785156 10.496094 22.109375 C 7.980469 19.40625 7.035156 16.210938 7.726562 12.59375 C 8.292969 9.613281 9.886719 7.25 12.429688 5.558594 C 14.117188 4.441406 15.953125 3.722656 18 3.644531 C 18.84375 3.609375 19.695312 3.636719 20.644531 3.636719 C 20.507812 3.476562 20.480469 3.410156 20.4375 3.398438 C 19.949219 3.257812 19.460938 3.105469 18.960938 2.996094 C 17.75 2.726562 16.535156 2.78125 15.316406 2.996094 C 13.726562 3.273438 12.25 3.847656 10.953125 4.8125 C 8.0625 6.957031 6.480469 9.855469 6.292969 13.4375 C 6.140625 16.296875 6.988281 18.886719 8.792969 21.128906 C 10.25 22.945312 12.121094 24.199219 14.269531 25.0625 Z M 14.269531 25.0625 " fill-opacity="1" fill-rule="nonzero"/></g><path fill="#ffffff" d="M 25.6875 17.117188 C 26.242188 15.734375 26.425781 14.296875 26.199219 12.832031 C 25.835938 10.496094 24.703125 8.613281 22.71875 7.28125 C 21.84375 6.691406 20.894531 6.296875 19.859375 6.117188 C 18.171875 5.828125 16.5625 6.140625 15.035156 6.867188 C 13.179688 7.75 11.886719 9.210938 10.910156 10.980469 C 10.84375 11.101562 10.804688 11.234375 10.761719 11.367188 C 10.753906 11.394531 10.777344 11.449219 10.800781 11.464844 C 10.828125 11.484375 10.882812 11.488281 10.910156 11.46875 C 11.222656 11.273438 11.429688 10.980469 11.621094 10.671875 C 11.808594 10.367188 11.980469 10.054688 12.222656 9.785156 C 13.261719 8.609375 14.554688 7.863281 16.082031 7.539062 C 17.625 7.214844 19.136719 7.375 20.609375 7.925781 C 23.78125 9.105469 25.917969 12.292969 25.554688 15.707031 C 25.386719 17.300781 24.792969 18.671875 23.621094 19.765625 C 21.722656 21.53125 19.480469 22.191406 16.945312 21.710938 C 14.851562 21.3125 13.195312 20.191406 12.011719 18.410156 C 11.226562 17.226562 10.722656 15.9375 10.667969 14.503906 C 10.644531 13.910156 10.664062 13.316406 10.664062 12.648438 C 10.550781 12.746094 10.503906 12.765625 10.496094 12.792969 C 10.398438 13.136719 10.289062 13.480469 10.214844 13.828125 C 10.023438 14.679688 10.0625 15.53125 10.214844 16.382812 C 10.410156 17.5 10.8125 18.535156 11.488281 19.445312 C 12.992188 21.472656 15.023438 22.582031 17.539062 22.714844 C 19.542969 22.820312 21.359375 22.226562 22.933594 20.960938 C 24.203125 19.9375 25.082031 18.625 25.6875 17.117188 Z M 25.6875 17.117188 " fill-opacity="1" fill-rule="nonzero"/><g transform="matrix(1, 0, 0, 1, 29, 0.000000000000005692)"><g clip-path="url(#7ce936d6d4)"><g fill="#ffffff" fill-opacity="1"><g transform="translate(0.806241, 21.019095)"><g><path d="M 11.296875 -14 L 11.296875 -11.265625 L 7.59375 -11.265625 L 7.59375 0 L 4.1875 0 L 4.1875 -11.265625 L 0.484375 -11.265625 L 0.484375 -14 Z M 11.296875 -14 "/></g></g></g><g fill="#ffffff" fill-opacity="1"><g transform="translate(11.4267, 21.019095)"><g><path d="M 4.640625 -9.265625 C 5.046875 -9.878906 5.546875 -10.363281 6.140625 -10.71875 C 6.734375 -11.070312 7.398438 -11.25 8.140625 -11.25 L 8.140625 -7.640625 L 7.203125 -7.640625 C 6.347656 -7.640625 5.707031 -7.457031 5.28125 -7.09375 C 4.851562 -6.726562 4.640625 -6.082031 4.640625 -5.15625 L 4.640625 0 L 1.234375 0 L 1.234375 -11.125 L 4.640625 -11.125 Z M 4.640625 -9.265625 "/></g></g></g><g fill="#ffffff" fill-opacity="1"><g transform="translate(18.799091, 21.019095)"><g><path d="M 2.953125 -12.28125 C 2.347656 -12.28125 1.859375 -12.457031 1.484375 -12.8125 C 1.109375 -13.164062 0.921875 -13.597656 0.921875 -14.109375 C 0.921875 -14.640625 1.109375 -15.082031 1.484375 -15.4375 C 1.859375 -15.789062 2.347656 -15.96875 2.953125 -15.96875 C 3.535156 -15.96875 4.015625 -15.789062 4.390625 -15.4375 C 4.773438 -15.082031 4.96875 -14.640625 4.96875 -14.109375 C 4.96875 -13.597656 4.773438 -13.164062 4.390625 -12.8125 C 4.015625 -12.457031 3.535156 -12.28125 2.953125 -12.28125 Z M 4.640625 -11.125 L 4.640625 0 L 1.234375 0 L 1.234375 -11.125 Z M 4.640625 -11.125 "/></g></g></g><g fill="#ffffff" fill-opacity="1"><g transform="translate(23.521218, 21.019095)"><g><path d="M 0.5625 -5.578125 C 0.5625 -6.722656 0.773438 -7.726562 1.203125 -8.59375 C 1.640625 -9.457031 2.226562 -10.117188 2.96875 -10.578125 C 3.71875 -11.046875 4.550781 -11.28125 5.46875 -11.28125 C 6.25 -11.28125 6.929688 -11.117188 7.515625 -10.796875 C 8.109375 -10.484375 8.566406 -10.066406 8.890625 -9.546875 L 8.890625 -11.125 L 12.296875 -11.125 L 12.296875 0 L 8.890625 0 L 8.890625 -1.578125 C 8.554688 -1.054688 8.09375 -0.632812 7.5 -0.3125 C 6.914062 0 6.226562 0.15625 5.4375 0.15625 C 4.539062 0.15625 3.71875 -0.078125 2.96875 -0.546875 C 2.226562 -1.015625 1.640625 -1.6875 1.203125 -2.5625 C 0.773438 -3.4375 0.5625 -4.441406 0.5625 -5.578125 Z M 8.890625 -5.5625 C 8.890625 -6.414062 8.65625 -7.085938 8.1875 -7.578125 C 7.71875 -8.066406 7.140625 -8.3125 6.453125 -8.3125 C 5.773438 -8.3125 5.203125 -8.066406 4.734375 -7.578125 C 4.265625 -7.097656 4.03125 -6.429688 4.03125 -5.578125 C 4.03125 -4.734375 4.265625 -4.0625 4.734375 -3.5625 C 5.203125 -3.0625 5.773438 -2.8125 6.453125 -2.8125 C 7.140625 -2.8125 7.71875 -3.054688 8.1875 -3.546875 C 8.65625 -4.035156 8.890625 -4.707031 8.890625 -5.5625 Z M 8.890625 -5.5625 "/></g></g></g><g fill="#ffffff" fill-opacity="1"><g transform="translate(35.895233, 21.019095)"><g><path d="M 4.640625 -14.75 L 4.640625 0 L 1.234375 0 L 1.234375 -14.75 Z M 4.640625 -14.75 "/></g></g></g><g fill="#ffffff" fill-opacity="1"><g transform="translate(40.61736, 21.019095)"><g><path d="M 11.71875 -5.734375 C 11.71875 -5.421875 11.695312 -5.09375 11.65625 -4.75 L 3.953125 -4.75 C 4.003906 -4.050781 4.222656 -3.519531 4.609375 -3.15625 C 5.003906 -2.789062 5.488281 -2.609375 6.0625 -2.609375 C 6.914062 -2.609375 7.503906 -2.96875 7.828125 -3.6875 L 11.46875 -3.6875 C 11.28125 -2.957031 10.941406 -2.300781 10.453125 -1.71875 C 9.972656 -1.132812 9.363281 -0.675781 8.625 -0.34375 C 7.894531 -0.0078125 7.082031 0.15625 6.1875 0.15625 C 5.09375 0.15625 4.117188 -0.0703125 3.265625 -0.53125 C 2.421875 -1 1.757812 -1.664062 1.28125 -2.53125 C 0.800781 -3.394531 0.5625 -4.40625 0.5625 -5.5625 C 0.5625 -6.71875 0.796875 -7.726562 1.265625 -8.59375 C 1.734375 -9.457031 2.394531 -10.117188 3.25 -10.578125 C 4.101562 -11.046875 5.082031 -11.28125 6.1875 -11.28125 C 7.257812 -11.28125 8.210938 -11.050781 9.046875 -10.59375 C 9.890625 -10.144531 10.546875 -9.503906 11.015625 -8.671875 C 11.484375 -7.835938 11.71875 -6.859375 11.71875 -5.734375 Z M 8.234375 -6.640625 C 8.234375 -7.222656 8.03125 -7.6875 7.625 -8.03125 C 7.226562 -8.375 6.734375 -8.546875 6.140625 -8.546875 C 5.566406 -8.546875 5.082031 -8.378906 4.6875 -8.046875 C 4.300781 -7.722656 4.0625 -7.253906 3.96875 -6.640625 Z M 8.234375 -6.640625 "/></g></g></g><g fill="#ffffff" fill-opacity="1"><g transform="translate(51.735989, 21.019095)"><g><path d="M 7.4375 -2.890625 L 7.4375 0 L 5.703125 0 C 4.460938 0 3.5 -0.300781 2.8125 -0.90625 C 2.125 -1.507812 1.78125 -2.5 1.78125 -3.875 L 1.78125 -8.296875 L 0.421875 -8.296875 L 0.421875 -11.125 L 1.78125 -11.125 L 1.78125 -13.84375 L 5.1875 -13.84375 L 5.1875 -11.125 L 7.421875 -11.125 L 7.421875 -8.296875 L 5.1875 -8.296875 L 5.1875 -3.828125 C 5.1875 -3.492188 5.265625 -3.253906 5.421875 -3.109375 C 5.578125 -2.960938 5.84375 -2.890625 6.21875 -2.890625 Z M 7.4375 -2.890625 "/></g></g></g><g fill="#ffffff" fill-opacity="1"><g transform="translate(58.669998, 21.019095)"><g><path d="M 2.953125 -12.28125 C 2.347656 -12.28125 1.859375 -12.457031 1.484375 -12.8125 C 1.109375 -13.164062 0.921875 -13.597656 0.921875 -14.109375 C 0.921875 -14.640625 1.109375 -15.082031 1.484375 -15.4375 C 1.859375 -15.789062 2.347656 -15.96875 2.953125 -15.96875 C 3.535156 -15.96875 4.015625 -15.789062 4.390625 -15.4375 C 4.773438 -15.082031 4.96875 -14.640625 4.96875 -14.109375 C 4.96875 -13.597656 4.773438 -13.164062 4.390625 -12.8125 C 4.015625 -12.457031 3.535156 -12.28125 2.953125 -12.28125 Z M 4.640625 -11.125 L 4.640625 0 L 1.234375 0 L 1.234375 -11.125 Z M 4.640625 -11.125 "/></g></g></g><g fill="#ffffff" fill-opacity="1"><g transform="translate(63.392125, 21.019095)"><g><path d="M 0.5625 -5.5625 C 0.5625 -6.71875 0.796875 -7.726562 1.265625 -8.59375 C 1.734375 -9.457031 2.390625 -10.117188 3.234375 -10.578125 C 4.078125 -11.046875 5.046875 -11.28125 6.140625 -11.28125 C 7.535156 -11.28125 8.703125 -10.914062 9.640625 -10.1875 C 10.578125 -9.457031 11.191406 -8.425781 11.484375 -7.09375 L 7.859375 -7.09375 C 7.546875 -7.945312 6.953125 -8.375 6.078125 -8.375 C 5.453125 -8.375 4.953125 -8.128906 4.578125 -7.640625 C 4.210938 -7.160156 4.03125 -6.46875 4.03125 -5.5625 C 4.03125 -4.65625 4.210938 -3.957031 4.578125 -3.46875 C 4.953125 -2.988281 5.453125 -2.75 6.078125 -2.75 C 6.953125 -2.75 7.546875 -3.175781 7.859375 -4.03125 L 11.484375 -4.03125 C 11.191406 -2.726562 10.570312 -1.703125 9.625 -0.953125 C 8.6875 -0.210938 7.523438 0.15625 6.140625 0.15625 C 5.046875 0.15625 4.078125 -0.0703125 3.234375 -0.53125 C 2.390625 -1 1.734375 -1.664062 1.265625 -2.53125 C 0.796875 -3.394531 0.5625 -4.40625 0.5625 -5.5625 Z M 0.5625 -5.5625 "/></g></g></g><g fill="#ffffff" fill-opacity="1"><g transform="translate(74.291557, 21.019095)"><g><path d="M 5.765625 0.15625 C 4.796875 0.15625 3.929688 -0.0078125 3.171875 -0.34375 C 2.410156 -0.675781 1.8125 -1.128906 1.375 -1.703125 C 0.9375 -2.285156 0.691406 -2.9375 0.640625 -3.65625 L 4 -3.65625 C 4.039062 -3.269531 4.222656 -2.957031 4.546875 -2.71875 C 4.867188 -2.476562 5.257812 -2.359375 5.71875 -2.359375 C 6.144531 -2.359375 6.472656 -2.4375 6.703125 -2.59375 C 6.941406 -2.757812 7.0625 -2.976562 7.0625 -3.25 C 7.0625 -3.570312 6.894531 -3.804688 6.5625 -3.953125 C 6.226562 -4.109375 5.6875 -4.28125 4.9375 -4.46875 C 4.144531 -4.65625 3.484375 -4.847656 2.953125 -5.046875 C 2.421875 -5.253906 1.960938 -5.582031 1.578125 -6.03125 C 1.191406 -6.476562 1 -7.078125 1 -7.828125 C 1 -8.472656 1.171875 -9.054688 1.515625 -9.578125 C 1.867188 -10.109375 2.390625 -10.523438 3.078125 -10.828125 C 3.765625 -11.128906 4.578125 -11.28125 5.515625 -11.28125 C 6.910156 -11.28125 8.007812 -10.9375 8.8125 -10.25 C 9.625 -9.5625 10.085938 -8.644531 10.203125 -7.5 L 7.0625 -7.5 C 7.007812 -7.882812 6.835938 -8.1875 6.546875 -8.40625 C 6.265625 -8.632812 5.890625 -8.75 5.421875 -8.75 C 5.023438 -8.75 4.71875 -8.671875 4.5 -8.515625 C 4.289062 -8.367188 4.1875 -8.160156 4.1875 -7.890625 C 4.1875 -7.578125 4.351562 -7.335938 4.6875 -7.171875 C 5.03125 -7.015625 5.5625 -6.859375 6.28125 -6.703125 C 7.101562 -6.484375 7.773438 -6.269531 8.296875 -6.0625 C 8.816406 -5.863281 9.269531 -5.535156 9.65625 -5.078125 C 10.050781 -4.617188 10.253906 -4.003906 10.265625 -3.234375 C 10.265625 -2.578125 10.082031 -1.992188 9.71875 -1.484375 C 9.351562 -0.972656 8.828125 -0.570312 8.140625 -0.28125 C 7.460938 0.0078125 6.671875 0.15625 5.765625 0.15625 Z M 5.765625 0.15625 "/></g></g></g></g></g></svg>