<svg xmlns="http://www.w3.org/2000/svg" version="1.1" xmlns:xlink="http://www.w3.org/1999/xlink" width="1000" height="1000"><style>
    #light-icon {
      display: inline;
    }
    #dark-icon {
      display: none;
    }

    @media (prefers-color-scheme: dark) {
      #light-icon {
        display: none;
      }
      #dark-icon {
        display: inline;
      }
    }
  </style><g id="light-icon"><svg xmlns="http://www.w3.org/2000/svg" version="1.1" xmlns:xlink="http://www.w3.org/1999/xlink" width="1000" height="1000"><g><g transform="matrix(3.7037037037037037,0,0,3.7037037037037037,0,0)"><svg xmlns="http://www.w3.org/2000/svg" version="1.1" xmlns:xlink="http://www.w3.org/1999/xlink" width="270" height="270"><svg width="270" height="270" viewBox="0 0 270 270" fill="none" xmlns="http://www.w3.org/2000/svg">
<rect width="270" height="270" fill="url(#paint0_linear_334_38628)"></rect>
<g clip-path="url(#clip0_334_38628)">
<path fill-rule="evenodd" clip-rule="evenodd" d="M124.809 28.0559L135.606 137.508L103.701 32.2561C96.6868 34.3185 90.0906 37.132 83.7629 40.5055L135.606 137.507L65.8251 52.4615C60.2612 56.9955 55.1689 62.1504 50.5594 67.7272L135.605 137.508L38.6034 85.6016C35.2297 91.9293 32.4159 98.5991 30.354 105.54L135.606 137.508L26.1538 126.711C25.8097 130.289 25.6062 133.866 25.6062 137.508C25.6062 141.151 25.8097 144.728 26.1538 148.305L135.606 137.508L30.354 169.477C32.4164 176.415 35.2299 183.087 38.6034 189.415L135.605 137.508L50.5594 207.289C55.1689 212.853 60.2483 218.011 65.8251 222.555L135.606 137.509L83.7629 234.511C90.0906 237.885 96.6852 240.699 103.701 242.761L135.606 137.509L124.809 246.961C128.386 247.305 131.964 247.508 135.606 247.508C139.249 247.508 142.825 247.305 146.403 246.961L135.606 137.509L167.511 242.761C174.526 240.698 181.122 237.885 187.449 234.511L135.606 137.509L205.387 222.555C210.951 218.021 216.044 212.866 220.653 207.289L135.607 137.508L232.609 189.415C235.983 183.087 238.796 176.417 240.858 169.477L135.607 137.508L245.059 148.305C245.403 144.728 245.606 141.151 245.606 137.508C245.606 133.866 245.403 130.289 245.059 126.711L135.607 137.508L240.858 105.54C238.796 98.6013 235.983 91.9293 232.609 85.6016L135.607 137.508L220.653 67.7272C216.044 62.1633 210.964 57.006 205.387 52.4615L135.606 137.507L187.449 40.5055C181.122 37.1318 174.452 34.318 167.511 32.2561L135.606 137.508L146.403 28.0559C142.826 27.7118 139.249 27.5083 135.606 27.5083C131.964 27.5083 128.387 27.7118 124.809 28.0559Z" fill="#F8F7F6"></path>
</g>
<defs>
<linearGradient id="paint0_linear_334_38628" x1="135" y1="0" x2="135" y2="270" gradientUnits="userSpaceOnUse">
<stop stop-color="#48515E"></stop>
<stop offset="1" stop-color="#1E2939"></stop>
</linearGradient>
<clipPath id="clip0_334_38628">
<rect width="220" height="220" fill="white" transform="translate(25 27)"></rect>
</clipPath>
</defs>
</svg></svg></g></g></svg></g><g id="dark-icon"><svg xmlns="http://www.w3.org/2000/svg" version="1.1" xmlns:xlink="http://www.w3.org/1999/xlink" width="1000" height="1000"><g><g transform="matrix(3.7037037037037037,0,0,3.7037037037037037,0,0)"><svg xmlns="http://www.w3.org/2000/svg" version="1.1" xmlns:xlink="http://www.w3.org/1999/xlink" width="270" height="270"><svg width="270" height="270" viewBox="0 0 270 270" fill="none" xmlns="http://www.w3.org/2000/svg">
<rect width="270" height="270" fill="#EDECEB"></rect>
<g clip-path="url(#clip0_334_38624)">
<path fill-rule="evenodd" clip-rule="evenodd" d="M124.809 28.0559L135.606 137.508L103.701 32.2561C96.6868 34.3185 90.0906 37.1321 83.7629 40.5056L135.606 137.507L65.8251 52.4616C60.2612 56.9955 55.1689 62.1505 50.5594 67.7273L135.605 137.508L38.6034 85.6017C35.2297 91.9294 32.4159 98.5992 30.354 105.54L135.606 137.508L26.1538 126.711C25.8097 130.289 25.6062 133.866 25.6062 137.508C25.6062 141.151 25.8097 144.728 26.1538 148.305L135.606 137.508L30.354 169.477C32.4164 176.415 35.2299 183.087 38.6034 189.415L135.605 137.508L50.5594 207.289C55.1689 212.853 60.2483 218.011 65.8251 222.555L135.606 137.509L83.7629 234.511C90.0906 237.885 96.6852 240.699 103.701 242.761L135.606 137.509L124.809 246.961C128.386 247.305 131.964 247.508 135.606 247.508C139.249 247.508 142.825 247.305 146.403 246.961L135.606 137.509L167.511 242.761C174.526 240.698 181.122 237.885 187.449 234.511L135.606 137.509L205.387 222.555C210.951 218.021 216.044 212.866 220.653 207.289L135.607 137.508L232.609 189.415C235.983 183.087 238.796 176.418 240.858 169.477L135.607 137.508L245.059 148.305C245.403 144.728 245.606 141.151 245.606 137.508C245.606 133.866 245.403 130.289 245.059 126.711L135.607 137.508L240.858 105.54C238.796 98.6013 235.983 91.9294 232.609 85.6017L135.607 137.508L220.653 67.7273C216.044 62.1634 210.964 57.0061 205.387 52.4616L135.606 137.507L187.449 40.5056C181.122 37.1319 174.452 34.3181 167.511 32.2561L135.606 137.508L146.403 28.0559C142.826 27.7119 139.249 27.5084 135.606 27.5084C131.964 27.5084 128.387 27.7119 124.809 28.0559Z" fill="url(#paint0_linear_334_38624)"></path>
</g>
<defs>
<linearGradient id="paint0_linear_334_38624" x1="135.606" y1="27.5084" x2="135.606" y2="247.508" gradientUnits="userSpaceOnUse">
<stop stop-color="#48515E"></stop>
<stop offset="1" stop-color="#1E2939"></stop>
</linearGradient>
<clipPath id="clip0_334_38624">
<rect width="220" height="220" fill="white" transform="translate(25 27)"></rect>
</clipPath>
</defs>
</svg></svg></g></g></svg></g></svg>